<?xml version="1.0" standalone="no"?>
<!DOCTYPE svg PUBLIC "-//W3C//DTD SVG 20010904//EN"
 "http://www.w3.org/TR/2001/REC-SVG-20010904/DTD/svg10.dtd">
<svg version="1.0" xmlns="http://www.w3.org/2000/svg"
 width="328.000000pt" height="328.000000pt" viewBox="0 0 328.000000 328.000000"
 preserveAspectRatio="xMidYMid meet">
<metadata>
Created by potrace 1.11, written by Peter Selinger 2001-2013
</metadata>
<g transform="translate(0.000000,328.000000) scale(0.100000,-0.100000)"
fill="#000000" stroke="none">
<path d="M2495 3205 c-85 -17 -184 -34 -225 -40 -19 -3 -46 -7 -60 -10 -14 -3
-41 -7 -60 -10 -19 -3 -46 -7 -60 -10 -37 -7 -79 -13 -135 -21 -27 -3 -57 -7
-65 -9 -8 -1 -44 -6 -80 -11 -36 -4 -67 -8 -70 -9 -3 -1 -36 -5 -75 -9 -38 -5
-78 -10 -87 -12 -9 -1 -49 -5 -90 -9 -40 -4 -91 -8 -113 -11 -22 -2 -78 -7
-125 -10 -47 -3 -101 -8 -120 -10 -19 -2 -132 -7 -250 -10 -118 -3 -218 -9
-221 -13 -7 -6 -44 -150 -54 -211 -3 -19 -10 -51 -15 -70 -5 -19 -12 -51 -15
-70 -3 -19 -14 -78 -25 -130 -16 -81 -62 -340 -77 -435 -2 -16 -11 -66 -18
-110 -8 -44 -17 -93 -20 -110 -11 -66 -45 -252 -50 -280 -6 -32 -74 -340 -80
-365 -27 -106 -69 -257 -85 -305 -76 -227 -122 -352 -184 -498 -15 -35 -15
-37 1 -38 10 0 43 -2 73 -4 30 -2 120 -6 200 -10 80 -3 161 -8 180 -9 19 -2
80 -7 135 -11 183 -13 200 -14 260 -20 33 -3 85 -7 115 -10 68 -6 144 -14 190
-20 19 -2 62 -7 95 -10 33 -3 76 -8 95 -10 164 -20 201 -25 243 -29 75 -9 140
-17 167 -21 14 -2 50 -6 80 -10 30 -4 66 -8 80 -10 14 -2 52 -7 85 -10 33 -4
67 -8 75 -10 8 -2 44 -6 80 -10 36 -3 76 -8 90 -10 29 -5 83 -12 160 -20 30
-3 111 -12 180 -21 120 -14 161 -18 260 -29 25 -2 65 -7 90 -10 25 -2 72 -7
105 -10 33 -2 89 -7 124 -10 56 -5 63 -3 57 11 -46 120 -218 736 -250 894 -3
14 -18 86 -35 160 -17 74 -33 151 -36 170 -3 19 -12 67 -20 105 -8 39 -17 88
-20 110 -4 22 -8 47 -10 55 -5 18 -51 269 -59 324 -4 21 -9 48 -11 60 -3 12
-7 37 -9 56 -2 19 -7 46 -10 60 -3 14 -8 41 -10 60 -5 31 -49 291 -61 360 -3
14 -9 52 -15 85 -5 33 -12 71 -15 85 -3 14 -16 86 -30 160 -14 74 -27 144 -29
155 -2 11 -14 70 -27 132 -18 86 -26 111 -38 110 -9 0 -43 -6 -76 -12z m-761
-410 c99 -149 142 -256 182 -450 4 -19 30 -123 38 -155 23 -81 111 -270 126
-270 4 0 10 30 13 68 7 82 15 104 35 100 11 -2 20 -23 27 -63 14 -74 51 -174
103 -280 36 -75 73 -169 102 -259 35 -111 51 -431 28 -591 -17 -129 -97 -404
-120 -413 -4 -2 -8 -10 -8 -19 0 -15 -54 -120 -71 -137 -19 -20 -20 5 -5 72 9
39 19 87 22 109 3 21 8 42 11 46 6 11 6 372 -1 395 -3 9 -7 40 -10 67 -5 43
-27 178 -40 240 -29 142 -106 405 -118 405 -5 0 -8 -24 -9 -52 0 -29 -2 -62
-4 -73 -2 -11 -6 -47 -10 -80 l-7 -60 -27 55 c-46 95 -96 250 -126 391 -9 41
-18 83 -21 94 -4 20 -26 154 -44 270 -5 33 -12 101 -16 150 -9 131 -36 249
-80 343 -13 29 -24 56 -24 61 0 5 -7 14 -16 22 -13 11 -14 9 -8 -17 16 -60 8
-363 -11 -454 -3 -14 -12 -56 -19 -95 -28 -143 -104 -348 -130 -353 -10 -2
-16 4 -17 15 0 10 -2 27 -4 38 -2 11 -7 39 -10 63 -3 23 -10 42 -14 42 -4 0
-13 -19 -20 -42 -16 -54 -77 -179 -99 -204 -96 -107 -222 -335 -310 -564 -91
-237 -122 -469 -86 -649 23 -113 5 -105 -45 21 -72 180 -92 368 -66 613 13
120 49 257 110 421 39 104 180 387 196 392 5 2 9 10 9 18 0 8 6 14 14 14 11 0
14 -16 14 -67 0 -42 6 -83 17 -108 l17 -40 35 40 c57 66 151 211 198 309 70
144 107 265 141 461 5 23 12 206 14 315 0 24 88 -69 144 -155z"/>
</g>
</svg>
