<?xml version="1.0" encoding="utf-8"?>
<!-- Generator: Adobe Illustrator 23.0.1, SVG Export Plug-In . SVG Version: 6.00 Build 0)  -->
<svg version="1.1" id="Layer_1" xmlns="http://www.w3.org/2000/svg" xmlns:xlink="http://www.w3.org/1999/xlink" x="0px" y="0px"
	 viewBox="0 0 160 156" style="enable-background:new 0 0 160 156;" xml:space="preserve">
<style type="text/css">
	.st0{fill:#ABCDEC;}
	.st1{fill:#A83232;}
	.st2{fill:#215FAD;}
	.st3{font-family:'LoraGX', 'Lora', Georgia, serif;}
	.st4{font-size:12.0398px;}
	.st5{fill:#FFFFFF;}
	.st6{font-size:24.0795px;}
	.st7{fill:#FFFFFF;stroke:#FFFFFF;stroke-width:0.5;}
	.st8{font-family:'Lora-Regular';}
	.st9{font-size:37.232px;}
</style>
<g>
	<path class="st0" d="M160,156c-66.16-5.96-97.08-13.51-160-15.77C20.24,95.18,20.29,54.72,31.44,10.5
		c31.71,0,65.59-4.84,95.14-10.5C137.72,50.4,140.64,98.21,160,156z"/>
</g>
<path class="st1" d="M55.4,106.94c0,0-7.56-11.81,2.36-33.54C67.68,51.67,68.62,59.7,72.88,46c0,0,1.42,4.72,0.94,8.98
	c0,0,10.13-16.71,6.82-37.49c0,0,4.51,7.26,4.99,16.23c0.47,8.97,3.78,26.92,8.98,35.9c0,0,1.42-5.2,0.94-10.86
	c0,0,13.58,33.8,2.71,55.05c0,0,13.83-16.26,10.99-40.41c-1.89-16.06-8.98-18.42-9.92-31.65c0,0-2.83,4.72-1.89,8.97
	c0,0-4.73-6.14-6.61-16.53C88.94,23.8,82.8,14.83,77.6,11.05c0,0,4.25,22.2-14.17,42.51c0,0-2.83-3.31-0.47-10.39
	C62.96,43.17,35.56,79.54,55.4,106.94z"/>
<text transform="matrix(1 0 0 1 97.6768 144.644)" class="st2 st3 st4">STUDIO</text>
<text transform="matrix(1 0 0 1 15.0791 125.3184)" class="st5 st3 st6">FIRE</text>
<text transform="matrix(1 0 0 1 102.479 129.7432)" class="st5 st3 st6">ICE</text>
<text transform="matrix(1 0 0 1 74.0103 131.48)" class="st7 st8 st9">&amp;</text>
</svg>
